<?xml version="1.0" encoding="UTF-8"?>
<svg xmlns="http://www.w3.org/2000/svg" xmlns:xlink="http://www.w3.org/1999/xlink" width="16px" height="16px" viewBox="0 0 16 14" version="1.1">
<g id="surface1">
<path style=" stroke:none;fill-rule:nonzero;fill:rgb(0%,0%,0%);fill-opacity:1;" d="M 8.804688 0.492188 C 8.65625 0.191406 8.34375 0 8.003906 0 C 7.660156 0 7.351562 0.191406 7.203125 0.492188 L 5.417969 4.109375 L 1.429688 4.6875 C 1.09375 4.738281 0.816406 4.96875 0.714844 5.28125 C 0.609375 5.597656 0.695312 5.945312 0.933594 6.175781 L 3.828125 8.996094 L 3.144531 12.980469 C 3.089844 13.308594 3.226562 13.640625 3.503906 13.835938 C 3.777344 14.03125 4.140625 14.054688 4.441406 13.898438 L 8.003906 12.027344 L 11.570312 13.898438 C 11.871094 14.054688 12.234375 14.03125 12.507812 13.835938 C 12.785156 13.640625 12.921875 13.308594 12.867188 12.980469 L 12.179688 8.996094 L 15.074219 6.175781 C 15.3125 5.945312 15.398438 5.597656 15.292969 5.28125 C 15.1875 4.96875 14.914062 4.738281 14.582031 4.6875 L 10.589844 4.109375 Z M 8.804688 0.492188 "/>
</g>
</svg>
