<?xml version="1.0" encoding="UTF-8"?>
<svg xmlns="http://www.w3.org/2000/svg" xmlns:xlink="http://www.w3.org/1999/xlink" width="16px" height="16px" viewBox="0 0 16 14" version="1.1">
<g id="surface1">
<path style=" stroke:none;fill-rule:nonzero;fill:rgb(0%,0%,0%);fill-opacity:1;" d="M 7.996094 0 C 8.253906 0 8.484375 0.140625 8.597656 0.367188 L 10.503906 4.234375 L 14.757812 4.851562 C 15.007812 4.886719 15.214844 5.058594 15.292969 5.296875 C 15.371094 5.535156 15.308594 5.792969 15.128906 5.964844 L 12.042969 8.980469 L 12.773438 13.234375 C 12.8125 13.480469 12.710938 13.730469 12.503906 13.875 C 12.292969 14.023438 12.023438 14.039062 11.800781 13.921875 L 7.996094 11.921875 L 4.195312 13.921875 C 3.96875 14.039062 3.695312 14.023438 3.492188 13.875 C 3.285156 13.726562 3.179688 13.476562 3.222656 13.230469 L 3.949219 8.976562 L 0.863281 5.964844 C 0.683594 5.792969 0.621094 5.53125 0.699219 5.296875 C 0.777344 5.0625 0.984375 4.890625 1.234375 4.851562 L 5.492188 4.234375 L 7.398438 0.367188 C 7.511719 0.140625 7.742188 0 7.996094 0 Z M 7.996094 2.160156 L 6.539062 5.117188 C 6.441406 5.3125 6.253906 5.449219 6.035156 5.484375 L 2.75 5.957031 L 5.136719 8.285156 C 5.289062 8.4375 5.359375 8.648438 5.324219 8.859375 L 4.761719 12.132812 L 7.683594 10.59375 C 7.878906 10.492188 8.117188 10.492188 8.3125 10.59375 L 11.234375 12.132812 L 10.671875 8.863281 C 10.636719 8.652344 10.707031 8.4375 10.859375 8.289062 L 13.246094 5.960938 L 9.960938 5.484375 C 9.746094 5.449219 9.554688 5.316406 9.457031 5.117188 Z M 7.996094 2.160156 "/>
</g>
</svg>
